<?xml version="1.0" encoding="UTF-8"?>
<svg version="1.1" xmlns="http://www.w3.org/2000/svg" width="1920" height="1920">
<path d="M0 0 C0.66 0 1.32 0 2 0 C2.3717334 0.98468262 2.7434668 1.96936523 3.12646484 2.98388672 C7.11372953 13.54340849 11.10821835 24.10018013 15.1104126 34.65405273 C15.67629094 36.14634088 16.24202199 37.6386849 16.80755615 39.13110352 C18.38675493 43.29795577 19.97255962 47.46223568 21.5625 51.625 C22.13266846 53.12909424 22.13266846 53.12909424 22.71435547 54.66357422 C24.83212876 60.18930169 27.14623368 65.57275163 29.62670898 70.94433594 C31.21229517 74.47237091 32.70090781 78.03645268 34.171875 81.61328125 C34.59604958 82.64420395 34.59604958 82.64420395 35.02879333 83.69595337 C35.62498758 85.14584872 36.22101674 86.59581196 36.81689453 88.0458374 C42.66492348 102.25163613 48.72701522 116.35175263 55 130.375 C55.35058472 131.16129791 55.70116943 131.94759583 56.06237793 132.75772095 C59.98587706 141.54615141 64.04746191 150.23285285 68.39648438 158.81884766 C70.76041829 163.50856431 73.00270698 168.2536248 75.25 173 C86.27957799 196.13786664 97.75886195 219.00705327 111.125 240.8984375 C112.62855524 243.38556847 114.058561 245.88071727 115.4375 248.4375 C118.26239901 253.64653363 121.49529472 258.6116962 124.69897461 263.59350586 C128 268.78476052 128 268.78476052 128 271 C121.58104632 269.86791094 115.18137685 268.65149218 108.7890625 267.37890625 C88.92608675 263.43221298 69.20008798 259.73029112 49 258 C49.03758423 259.57285767 49.03758423 259.57285767 49.07592773 261.17749023 C49.6006 283.53489889 49.99942799 305.89152972 50.21875 328.25390625 C50.22749586 329.1427803 50.23624172 330.03165436 50.24525261 330.94746399 C50.28136799 334.62583161 50.31732495 338.30420077 50.3532095 341.98257065 C51.18272224 426.64780677 53.19263917 511.3268259 72 763 C73.51114883 763.16034477 73.51114883 763.16034477 75.05282593 763.32392883 C87.28207501 764.6416984 99.47775532 766.18510918 111.67421341 767.77544212 C115.27816347 768.24534589 118.88238184 768.71314546 122.48666382 769.18049622 C130.19968128 770.1809973 137.91235398 771.1841402 145.625 772.1875 C155.67946305 773.49522196 165.73413529 774.80132048 175.7890625 776.10546875 C177.02752174 776.26622768 178.26598099 776.42698662 179.5419693 776.59261703 C193.71903103 778.43172434 207.89877463 780.24691837 222.08496094 782.01416016 C223.3861128 782.17629281 224.68726467 782.33842546 226.02784538 782.50547123 C232.25815933 783.28082542 238.48887562 784.05278919 244.72012329 784.82060242 C246.41261641 785.0301698 246.41261641 785.0301698 248.1393013 785.24397087 C250.23823497 785.50385317 252.33735265 785.7622554 254.43668747 786.01887703 C255.36503025 786.13404608 256.29337303 786.24921513 257.24984741 786.36787415 C258.45228875 786.51572845 258.45228875 786.51572845 259.67902184 786.66656971 C262.14201147 787.02040128 264.56475777 787.49098905 267 788 C267.15307114 787.05824921 267.15307114 787.05824921 267.30923462 786.09747314 C268.66675907 778.17077658 270.5929497 770.44207546 272.6484375 762.671875 C273.01673187 761.26852643 273.38479785 759.8651179 273.75265503 758.46165466 C274.74592834 754.67885481 275.74567775 750.89779767 276.74769592 747.11730576 C277.37957901 744.73271984 278.01013675 742.34778639 278.64050293 739.96279907 C303.17965286 647.18671029 329.57196905 554.47211184 366.81452942 445.33499146 C368.50064069 440.4773976 370.14070269 435.60620875 371.75 430.72265625 C371.97335526 430.04522369 372.19671051 429.36779114 372.42683411 428.66983032 C373.31537626 425.97280284 374.20327261 423.27556524 375.08944702 420.57775879 C377.86431478 412.14852444 380.77937219 403.7821125 383.83203125 395.44921875 C384.1575145 394.55767593 384.48299774 393.66613312 384.81834412 392.74757385 C386.41881738 388.36768831 388.03281801 383.99361507 389.66967773 379.62719727 C390.25419115 378.03808777 390.83827838 376.44882142 391.421875 374.859375 C391.69832352 374.13695114 391.97477203 373.41452728 392.25959778 372.67021179 C393.68434423 368.74827656 394.43371981 365.99478172 393 362 C376.82871045 342.49712533 348.49545556 330.18080046 326 320 C326 319.34 326 318.68 326 318 C326.66604248 317.83508057 327.33208496 317.67016113 328.01831055 317.50024414 C389.88842252 302.07616056 452.5840725 279.55336653 506 244 C507.16495373 247.4948612 506.88074312 247.89452078 505.40234375 251.09375 C505.02021729 251.94074463 504.63809082 252.78773926 504.24438477 253.66040039 C503.81311279 254.59746826 503.38184082 255.53453613 502.9375 256.5 C498.42278943 266.60326507 494.1678959 276.78723328 490.0625 287.0625 C489.76551208 287.80581573 489.46852417 288.54913147 489.16253662 289.31497192 C483.13668174 304.43428947 477.47499807 319.67328385 472 335 C471.67483398 335.90637207 471.34966797 336.81274414 471.01464844 337.74658203 C468.96186747 343.4816366 466.96875129 349.23561959 465 355 C464.64115723 356.04397949 464.28231445 357.08795898 463.91259766 358.16357422 C453.8377534 387.55866036 445.06580814 417.34863573 436.98583984 447.35058594 C436.14294454 450.47084324 435.28973119 453.58805963 434.4324646 456.70439148 C417.99061729 516.60142467 406.05185634 577.7400798 396 639 C395.85560486 639.87581726 395.71120972 640.75163452 395.56243896 641.6539917 C385.98479305 699.82032819 379.12040674 758.53144034 374.75 817.3125 C374.66489166 818.43631073 374.57978333 819.56012146 374.49209595 820.71798706 C373.65998674 831.78633635 372.93743712 842.82268386 372.734375 853.921875 C372.69124401 855.58555191 372.64732525 857.24920862 372.60253906 858.9128418 C372.52320293 861.88248203 372.51669924 864.83782224 372.56152344 867.80786133 C372.34847674 876.86963447 370.00617728 881.4262952 363.67565918 887.56593323 C362.634955 888.54117265 361.59111643 889.51307844 360.54411316 890.48155212 C357.93547779 893.04682839 355.72720471 895.91663008 353.5 898.8125 C352.99750732 899.45662842 352.49501465 900.10075684 351.97729492 900.7644043 C351.58646729 901.27914307 351.19563965 901.79388184 350.79296875 902.32421875 C350.33970215 902.92024902 349.88643555 903.5162793 349.41943359 904.13037109 C348.71681396 905.0558374 348.71681396 905.0558374 348 906 C347.49936035 906.65436035 346.9987207 907.3087207 346.48291016 907.98291016 C340.53542618 915.76182381 334.7924458 923.58061766 329.5234375 931.83984375 C328 934 328 934 326 935 C323.78372755 934.03530673 321.69561848 933.00289876 319.5625 931.875 C318.09989121 931.12578022 316.63627313 930.37852884 315.171875 929.6328125 C314.35267578 929.21418945 313.53347656 928.79556641 312.68945312 928.36425781 C293.50291056 918.63165071 274.00130719 909.91805483 254 902 C253.33615295 901.73660828 252.67230591 901.47321655 251.98834229 901.20184326 C241.37637483 896.99670768 230.71611663 892.93211485 220 889 C219.2962323 888.74116028 218.5924646 888.48232056 217.86737061 888.21563721 C198.12699458 880.98058468 178.93354107 875.69212749 158 873 C156.80679138 872.84431549 156.80679138 872.84431549 155.58947754 872.68548584 C122.10787346 868.32601036 88.71049284 865.69753291 55 864 C56.87862379 885.94075267 56.87862379 885.94075267 59.875 907.75 C60.08044434 909.04550781 60.08044434 909.04550781 60.29003906 910.3671875 C61.02179865 914.60285854 61.86173157 918.5948883 63.25366211 922.6730957 C68.55110575 938.54319747 67.36660088 954.80303495 66.87976074 971.29040527 C66.76650723 975.32662905 66.68453425 979.36348907 66.59960938 983.40039062 C66.42964661 991.26790797 66.22316556 999.13381193 66 1007 C56.76 1007 47.52 1007 38 1007 C38 1156.82 38 1306.64 38 1461 C13.58 1461 -10.84 1461 -36 1461 C-36 1310.85 -36 1160.7 -36 1006 C-45.24 1006 -54.48 1006 -64 1006 C-64.11409737 996.97507323 -64.2053353 987.95064486 -64.25906086 978.92515278 C-64.28487892 974.73180628 -64.31974983 970.53898918 -64.37719727 966.34594727 C-64.83946852 931.69978892 -64.83946852 931.69978892 -59.60028076 915.0418396 C-54.80007077 898.71404856 -54.89649682 880.87731711 -54 864 C-90.46544901 865.9920706 -126.6763545 868.54564516 -162.8125 873.9375 C-163.60376282 874.05284088 -164.39502563 874.16818176 -165.21026611 874.28701782 C-182.40652975 876.82219382 -198.60803741 881.57894415 -214.875 887.625 C-216.31130875 888.15403099 -217.7476706 888.6829178 -219.18408203 889.21166992 C-239.07428912 896.55765994 -258.7439396 904.37830253 -278.25 912.6875 C-278.97217712 912.9937027 -279.69435425 913.2999054 -280.43841553 913.61538696 C-290.18129467 917.75524033 -299.69763777 922.22666846 -309.12341309 927.04458618 C-312.40589099 928.71577163 -315.70379636 930.35610378 -319 932 C-320.7325 932.86625 -320.7325 932.86625 -322.5 933.75 C-323.325 934.1625 -324.15 934.575 -325 935 C-327.84157553 931.55667906 -330.42518439 927.99718305 -332.95874023 924.32739258 C-339.94232541 914.22154413 -347.44092437 904.56584749 -355.48876953 895.28271484 C-359 891.20416228 -359 891.20416228 -359 889 C-359.66 889 -360.32 889 -361 889 C-362.69140625 887.28515625 -362.69140625 887.28515625 -364.5625 885.0625 C-365.18253906 884.33160156 -365.80257812 883.60070313 -366.44140625 882.84765625 C-366.95574219 882.23792969 -367.47007812 881.62820313 -368 881 C-368.33 880.67 -368.66 880.34 -369 880 C-369.2114956 878.00004733 -369.35698854 875.99309849 -369.47729492 873.9855957 C-369.55821381 872.68178955 -369.63913269 871.3779834 -369.72250366 870.03466797 C-369.76431133 869.32735535 -369.806119 868.62004272 -369.84919357 867.89129639 C-370.02876588 864.86067649 -370.21955093 861.8307904 -370.40943909 858.80080223 C-370.56338627 856.34062508 -370.71572135 853.88035092 -370.86807251 851.42007446 C-375.57163143 775.86049871 -383.74053414 700.7652922 -396.46868896 626.12475586 C-396.97830618 623.12758607 -397.48173015 620.12945022 -397.98291016 617.13085938 C-413.61031138 523.8453141 -436.89246662 431.87661931 -506 245 C-502.60049381 245 -501.59724574 245.63211229 -498.75390625 247.37890625 C-497.92334717 247.88429932 -497.09278809 248.38969238 -496.23706055 248.91040039 C-495.35445557 249.45559326 -494.47185059 250.00078613 -493.5625 250.5625 C-491.72668859 251.677291 -489.89075187 252.79187567 -488.0546875 253.90625 C-485.30494509 255.58603418 -482.55992989 257.27247584 -479.8203125 258.96875 C-469.64412049 265.12881876 -458.7704486 269.98532283 -448 275 C-447.15904785 275.39477539 -446.3180957 275.78955078 -445.45166016 276.19628906 C-409.07971313 293.22460349 -370.08820066 307.58957439 -330.87475586 316.4543457 C-328.90234142 316.91236499 -326.94827118 317.44823934 -325 318 C-324.67 318.66 -324.34 319.32 -324 320 C-325.18851563 320.49886719 -326.37703125 320.99773437 -327.6015625 321.51171875 C-349.41191801 330.87650398 -370.64117081 342.838749 -388.01171875 359.1875 C-390 361 -390 361 -393 363 C-390.89003609 370.26611779 -388.53116304 377.42184327 -386.04296875 384.56640625 C-385.47348763 386.21003647 -385.47348763 386.21003647 -384.89250183 387.88687134 C-384.08020438 390.23089521 -383.26703516 392.57461712 -382.45306396 394.9180603 C-380.3036442 401.10773615 -378.16216636 407.30016052 -376.01953125 413.4921875 C-375.59071655 414.73089096 -375.16190186 415.96959442 -374.72009277 417.24583435 C-365.81713605 442.9674798 -356.92583072 468.68550339 -348.74285889 494.64709473 C-347.88957553 497.34975461 -347.03307543 500.05138447 -346.17626953 502.75292969 C-318.68806503 589.43977622 -293.63612646 676.72566316 -265 787 C-252.86916395 786.28963162 -240.85329314 784.68528081 -228.8046875 783.15625 C-226.51479172 782.86780262 -224.22486901 782.57956895 -221.93492126 782.29153442 C-215.83754448 781.52357435 -209.74072849 780.75124735 -203.64404678 779.97779083 C-199.87369955 779.49983515 -196.10318376 779.02323177 -192.33261108 778.54705811 C-159.71881218 774.42747455 -127.11534026 770.2412372 -94.54829693 765.76553535 C-92.60614448 765.49871253 -90.66386074 765.23284581 -88.72157288 764.9670105 C-86.42534583 764.65217492 -84.1294458 764.33493964 -81.83396912 764.01467896 C-80.84695511 763.87915619 -79.8599411 763.74363342 -78.84301758 763.60400391 C-77.99645096 763.48634674 -77.14988434 763.36868958 -76.27766418 763.24746704 C-74 763 -74 763 -70 763 C-69.88317871 761.82961182 -69.76635742 760.65922363 -69.64599609 759.45336914 C-69.48015755 757.79313008 -69.3143033 756.13289259 -69.1484375 754.47265625 C-69.05871674 753.57410416 -68.96899597 752.67555206 -68.8765564 751.74977112 C-68.39808466 746.96286695 -67.91715168 742.17623329 -67.43066406 737.39013672 C-58.87963036 653.21262278 -54.24823332 568.84474758 -50.875 461.8125 C-50.85541985 461.14312408 -50.83583969 460.47374817 -50.8156662 459.78408813 C-50.53126945 450.05176735 -50.2815853 440.31893892 -50.05910873 430.58503723 C-50.01804845 428.78932334 -49.97657868 426.99361879 -49.93478775 425.19792175 C-49.09480588 388.96851124 -48.8675133 352.75724987 -48.93133545 316.5189209 C-48.94184804 309.87850274 -48.94619071 303.23808033 -48.95117188 296.59765625 C-48.96167258 283.7317605 -48.97836047 270.86588163 -49 258 C-65.47523731 260.08200054 -81.85383765 262.26162489 -98.125 265.625 C-101.08527075 266.22467938 -104.04655401 266.81928301 -107.0078125 267.4140625 C-107.69659485 267.55346252 -108.3853772 267.69286255 -109.09503174 267.83648682 C-115.0414038 269.03178887 -121.00851235 270.05973529 -127 271 C-125.65628195 268.2365408 -124.1989339 265.5970861 -122.6015625 262.97265625 C-122.12831543 262.19132324 -121.65506836 261.40999023 -121.16748047 260.60498047 C-120.65846191 259.76596191 -120.14944336 258.92694336 -119.625 258.0625 C-113.23873884 247.47429219 -107.07739508 236.76787605 -101 226 C-100.54850586 225.20287598 -100.09701172 224.40575195 -99.63183594 223.58447266 C-94.18637691 213.95775056 -89.01746774 204.24360385 -84.14404297 194.31591797 C-82.84939191 191.69511985 -81.53721615 189.08352446 -80.22265625 186.47265625 C-53.29110384 132.97010446 -29.98520327 77.92496669 -8.67242432 21.96264648 C-5.86524952 14.60773882 -2.95369434 7.29724064 0 0 Z " fill="#F9A730" transform="translate(951,257)"/>
<path d="M0 0 C0.66 0 1.32 0 2 0 C2.83739781 2.1234016 3.66980283 4.2487728 4.5 6.375 C4.9640625 7.55835938 5.428125 8.74171875 5.90625 9.9609375 C7 13 7 13 7 15 C5.02 15 3.04 15 1 15 C1 318.93 1 622.86 1 936 C-20.12 936 -41.24 936 -63 936 C-64.28149164 933.43701671 -63.81935498 932.58307968 -63.109375 929.84375 C-62.89579346 928.99635254 -62.68221191 928.14895508 -62.4621582 927.27587891 C-62.227146 926.35983887 -61.99213379 925.44379883 -61.75 924.5 C-56.82767618 904.36492218 -55.09721204 884.65595235 -54 864 C-90.46544901 865.9920706 -126.6763545 868.54564516 -162.8125 873.9375 C-163.60376282 874.05284088 -164.39502563 874.16818176 -165.21026611 874.28701782 C-182.40652975 876.82219382 -198.60803741 881.57894415 -214.875 887.625 C-216.31130875 888.15403099 -217.7476706 888.6829178 -219.18408203 889.21166992 C-239.07428912 896.55765994 -258.7439396 904.37830253 -278.25 912.6875 C-278.97217712 912.9937027 -279.69435425 913.2999054 -280.43841553 913.61538696 C-290.18129467 917.75524033 -299.69763777 922.22666846 -309.12341309 927.04458618 C-312.40589099 928.71577163 -315.70379636 930.35610378 -319 932 C-320.7325 932.86625 -320.7325 932.86625 -322.5 933.75 C-323.325 934.1625 -324.15 934.575 -325 935 C-327.84157553 931.55667906 -330.42518439 927.99718305 -332.95874023 924.32739258 C-339.94232541 914.22154413 -347.44092437 904.56584749 -355.48876953 895.28271484 C-359 891.20416228 -359 891.20416228 -359 889 C-359.66 889 -360.32 889 -361 889 C-362.69140625 887.28515625 -362.69140625 887.28515625 -364.5625 885.0625 C-365.18253906 884.33160156 -365.80257812 883.60070313 -366.44140625 882.84765625 C-366.95574219 882.23792969 -367.47007812 881.62820313 -368 881 C-368.33 880.67 -368.66 880.34 -369 880 C-369.2114956 878.00004733 -369.35698854 875.99309849 -369.47729492 873.9855957 C-369.55821381 872.68178955 -369.63913269 871.3779834 -369.72250366 870.03466797 C-369.76431133 869.32735535 -369.806119 868.62004272 -369.84919357 867.89129639 C-370.02876588 864.86067649 -370.21955093 861.8307904 -370.40943909 858.80080223 C-370.56338627 856.34062508 -370.71572135 853.88035092 -370.86807251 851.42007446 C-375.57163143 775.86049871 -383.74053414 700.7652922 -396.46868896 626.12475586 C-396.97830618 623.12758607 -397.48173015 620.12945022 -397.98291016 617.13085938 C-413.61031138 523.8453141 -436.89246662 431.87661931 -506 245 C-502.60049381 245 -501.59724574 245.63211229 -498.75390625 247.37890625 C-497.92334717 247.88429932 -497.09278809 248.38969238 -496.23706055 248.91040039 C-495.35445557 249.45559326 -494.47185059 250.00078613 -493.5625 250.5625 C-491.72668859 251.677291 -489.89075187 252.79187567 -488.0546875 253.90625 C-485.30494509 255.58603418 -482.55992989 257.27247584 -479.8203125 258.96875 C-469.64412049 265.12881876 -458.7704486 269.98532283 -448 275 C-447.15904785 275.39477539 -446.3180957 275.78955078 -445.45166016 276.19628906 C-409.07971313 293.22460349 -370.08820066 307.58957439 -330.87475586 316.4543457 C-328.90234142 316.91236499 -326.94827118 317.44823934 -325 318 C-324.67 318.66 -324.34 319.32 -324 320 C-325.18851563 320.49886719 -326.37703125 320.99773437 -327.6015625 321.51171875 C-349.41191801 330.87650398 -370.64117081 342.838749 -388.01171875 359.1875 C-390 361 -390 361 -393 363 C-390.89003609 370.26611779 -388.53116304 377.42184327 -386.04296875 384.56640625 C-385.47348763 386.21003647 -385.47348763 386.21003647 -384.89250183 387.88687134 C-384.08020438 390.23089521 -383.26703516 392.57461712 -382.45306396 394.9180603 C-380.3036442 401.10773615 -378.16216636 407.30016052 -376.01953125 413.4921875 C-375.59071655 414.73089096 -375.16190186 415.96959442 -374.72009277 417.24583435 C-365.81713605 442.9674798 -356.92583072 468.68550339 -348.74285889 494.64709473 C-347.88957553 497.34975461 -347.03307543 500.05138447 -346.17626953 502.75292969 C-318.68806503 589.43977622 -293.63612646 676.72566316 -265 787 C-252.86916395 786.28963162 -240.85329314 784.68528081 -228.8046875 783.15625 C-226.51479172 782.86780262 -224.22486901 782.57956895 -221.93492126 782.29153442 C-215.83754448 781.52357435 -209.74072849 780.75124735 -203.64404678 779.97779083 C-199.87369955 779.49983515 -196.10318376 779.02323177 -192.33261108 778.54705811 C-159.71881218 774.42747455 -127.11534026 770.2412372 -94.54829693 765.76553535 C-92.60614448 765.49871253 -90.66386074 765.23284581 -88.72157288 764.9670105 C-86.42534583 764.65217492 -84.1294458 764.33493964 -81.83396912 764.01467896 C-80.84695511 763.87915619 -79.8599411 763.74363342 -78.84301758 763.60400391 C-77.99645096 763.48634674 -77.14988434 763.36868958 -76.27766418 763.24746704 C-74 763 -74 763 -70 763 C-69.88317871 761.82961182 -69.76635742 760.65922363 -69.64599609 759.45336914 C-69.48015755 757.79313008 -69.3143033 756.13289259 -69.1484375 754.47265625 C-69.05871674 753.57410416 -68.96899597 752.67555206 -68.8765564 751.74977112 C-68.39808466 746.96286695 -67.91715168 742.17623329 -67.43066406 737.39013672 C-58.87963036 653.21262278 -54.24823332 568.84474758 -50.875 461.8125 C-50.85541985 461.14312408 -50.83583969 460.47374817 -50.8156662 459.78408813 C-50.53126945 450.05176735 -50.2815853 440.31893892 -50.05910873 430.58503723 C-50.01804845 428.78932334 -49.97657868 426.99361879 -49.93478775 425.19792175 C-49.09480588 388.96851124 -48.8675133 352.75724987 -48.93133545 316.5189209 C-48.94184804 309.87850274 -48.94619071 303.23808033 -48.95117188 296.59765625 C-48.96167258 283.7317605 -48.97836047 270.86588163 -49 258 C-65.47523731 260.08200054 -81.85383765 262.26162489 -98.125 265.625 C-101.08527075 266.22467938 -104.04655401 266.81928301 -107.0078125 267.4140625 C-107.69659485 267.55346252 -108.3853772 267.69286255 -109.09503174 267.83648682 C-115.0414038 269.03178887 -121.00851235 270.05973529 -127 271 C-125.65628195 268.2365408 -124.1989339 265.5970861 -122.6015625 262.97265625 C-122.12831543 262.19132324 -121.65506836 261.40999023 -121.16748047 260.60498047 C-120.65846191 259.76596191 -120.14944336 258.92694336 -119.625 258.0625 C-113.23873884 247.47429219 -107.07739508 236.76787605 -101 226 C-100.54850586 225.20287598 -100.09701172 224.40575195 -99.63183594 223.58447266 C-94.18637691 213.95775056 -89.01746774 204.24360385 -84.14404297 194.31591797 C-82.84939191 191.69511985 -81.53721615 189.08352446 -80.22265625 186.47265625 C-53.29110384 132.97010446 -29.98520327 77.92496669 -8.67242432 21.96264648 C-5.86524952 14.60773882 -2.95369434 7.29724064 0 0 Z " fill="#FCBE3E" transform="translate(951,257)"/>
<path d="M0 0 C26.93975027 0.20945712 26.93975027 0.20945712 38.52929688 0.30664062 C46.40029222 0.37261895 54.2712873 0.43773008 62.14233398 0.49731445 C68.49663356 0.54547542 74.85088669 0.59782765 81.20512962 0.65294075 C83.61486829 0.67313284 86.02461956 0.69188005 88.43438148 0.70907402 C99.65422359 0.78998822 110.86309739 0.90104554 122.07104492 1.45727539 C122.86873197 1.49530746 123.66641901 1.53333952 124.48827839 1.57252407 C129.87491572 1.87491572 129.87491572 1.87491572 131 3 C131.06452309 5.14821335 131.05682844 7.29861428 131.02172852 9.44750977 C131.01212097 10.12065216 131.00251343 10.79379456 130.99261475 11.48733521 C130.95951717 13.72212842 130.91922631 15.95673262 130.87890625 18.19140625 C130.85461562 19.73696721 130.83077154 21.28253525 130.80735779 22.82810974 C130.74441156 26.90363606 130.67537502 30.97903766 130.60510254 35.05444336 C130.534514 39.21006573 130.46964039 43.3657768 130.40429688 47.52148438 C130.27514877 55.68108962 130.13904379 63.84055738 130 72 C120.76 72 111.52 72 102 72 C102 221.82 102 371.64 102 526 C77.58 526 53.16 526 28 526 C28 375.85 28 225.7 28 71 C18.76 71 9.52 71 0 71 C0 47.57 0 24.14 0 0 Z " fill="#2E2F2F" transform="translate(887,1192)"/>
<path d="M0 0 C-0.99 0 -1.98 0 -3 0 C-3 0.66 -3 1.32 -3 2 C-4.423125 2.2165625 -4.423125 2.2165625 -5.875 2.4375 C-8.8934494 2.82935399 -8.8934494 2.82935399 -11 4 C-9.13433512 7.62793998 -9.13433512 7.62793998 -6 10 C-5.375 12.0625 -5.375 12.0625 -5 14 C-9.46797338 12.60121198 -13.63822079 10.86369228 -17.875 8.875 C-19.02742188 8.33617187 -20.17984375 7.79734375 -21.3671875 7.2421875 C-22.67042969 6.62730469 -22.67042969 6.62730469 -24 6 C-24 5.34 -24 4.68 -24 4 C-20.75393904 3.1303597 -17.50267592 2.28203087 -14.25 1.4375 C-13.32960938 1.19064453 -12.40921875 0.94378906 -11.4609375 0.68945312 C-10.57148437 0.46064453 -9.68203125 0.23183594 -8.765625 -0.00390625 C-7.94868164 -0.21861572 -7.13173828 -0.4333252 -6.29003906 -0.65454102 C-3.85854591 -1.02133876 -2.31574702 -0.76494053 0 0 Z " fill="#FAB24A" transform="translate(1301,571)"/>
<path d="M0 0 C3.67882073 3.28466137 5.75150101 6.66360908 8 11 C8 11.66 8 12.32 8 13 C1.29225357 11.82144268 -5.36181939 10.52351686 -12 9 C-8.7260295 5.14766248 -5.86754429 5.39897904 -1 5 C-0.67 3.35 -0.34 1.7 0 0 Z " fill="#FAB34E" transform="translate(1071,515)"/>
<path d="M0 0 C1.64767247 0.28109113 3.29313145 0.57518526 4.9375 0.875 C5.85402344 1.03742187 6.77054688 1.19984375 7.71484375 1.3671875 C8.46894531 1.57601562 9.22304688 1.78484375 10 2 C10.33 2.66 10.66 3.32 11 4 C8.54595776 5.19716659 6.08748321 6.3829346 3.625 7.5625 C2.57699219 8.07586914 2.57699219 8.07586914 1.5078125 8.59960938 C-0.30052216 9.46030712 -2.14851956 10.23652436 -4 11 C-4.66 10.67 -5.32 10.34 -6 10 C-5.67 8.68 -5.34 7.36 -5 6 C-3.35 5.67 -1.7 5.34 0 5 C-0.33 4.01 -0.66 3.02 -1 2 C-0.67 1.34 -0.34 0.68 0 0 Z " fill="#FCCA61" transform="translate(616,573)"/>
<path d="M0 0 C1.98283479 1.11852219 3.96117623 2.24501325 5.9375 3.375 C7.59072266 4.31472656 7.59072266 4.31472656 9.27734375 5.2734375 C12 7 12 7 13 9 C11.68 9.33 10.36 9.66 9 10 C9 9.34 9 8.68 9 8 C7.35 7.67 5.7 7.34 4 7 C4 7.99 4 8.98 4 10 C5.32 10.33 6.64 10.66 8 11 C7.67 12.98 7.34 14.96 7 17 C4.35820725 13.80815657 2.85450983 10.58418661 1.3125 6.75 C0.87550781 5.67234375 0.43851562 4.5946875 -0.01171875 3.484375 C-0.33785156 2.66453125 -0.66398437 1.8446875 -1 1 C-0.67 0.67 -0.34 0.34 0 0 Z " fill="#FBD074" transform="translate(446,501)"/>
<path d="M0 0 C1.92361487 3.52662726 2.3521821 5.94990588 2 10 C1.34 10.66 0.68 11.32 0 12 C-0.33 11.67 -0.66 11.34 -1 11 C-1.66 12.65 -2.32 14.3 -3 16 C-2.34 16 -1.68 16 -1 16 C-0.67 15.01 -0.34 14.02 0 13 C0.99 13.66 1.98 14.32 3 15 C2.01 16.485 2.01 16.485 1 18 C-0.65 17.67 -2.3 17.34 -4 17 C-3.938125 18.11375 -3.87625 19.2275 -3.8125 20.375 C-3.9053125 22.169375 -3.9053125 22.169375 -4 24 C-4.99 24.66 -5.98 25.32 -7 26 C-6.36519395 20.077822 -4.78907028 14.71172256 -2.9375 9.0625 C-2.65583984 8.18787109 -2.37417969 7.31324219 -2.08398438 6.41210938 C-1.39434445 4.27305673 -0.69959171 2.13581421 0 0 Z " fill="#FAB654" transform="translate(1307,734)"/>
<path d="M0 0 C0.91007812 0.10183594 1.82015625 0.20367188 2.7578125 0.30859375 C3.45648437 0.39238281 4.15515625 0.47617187 4.875 0.5625 C4.545 1.5525 4.215 2.5425 3.875 3.5625 C7.48492379 2.90664811 7.48492379 2.90664811 10.875 1.5625 C13 2.5 13 2.5 14.875 3.5625 C14.215 3.5625 13.555 3.5625 12.875 3.5625 C12.875 4.2225 12.875 4.8825 12.875 5.5625 C10.16644546 5.2518306 7.45816612 4.93902255 4.75 4.625 C3.60917969 4.49448242 3.60917969 4.49448242 2.4453125 4.36132812 C-1.76829577 3.8709513 -5.946195 3.30347022 -10.125 2.5625 C-6.08912363 -0.12808425 -4.75060299 -0.5481465 0 0 Z " fill="#FAAD40" transform="translate(1029.125,514.4375)"/>
<path d="M0 0 C1.35439668 2.70879335 1.06501451 5.00933268 1 8 C0.34 8 -0.32 8 -1 8 C-1.061875 9.0725 -1.12375 10.145 -1.1875 11.25 C-2 15 -2 15 -4.4375 17.4375 C-7 19 -7 19 -9 19 C-7.6077541 14.37324343 -5.70479016 10.35313769 -3.375 6.125 C-2.74335937 4.97257812 -2.11171875 3.82015625 -1.4609375 2.6328125 C-0.97882812 1.76398438 -0.49671875 0.89515625 0 0 Z " fill="#FCC757" transform="translate(862,461)"/>
<path d="M0 0 C0.33 0 0.66 0 1 0 C1.14586468 4.26421424 1.28806489 8.52853237 1.42724609 12.79296875 C1.47480543 14.23570849 1.52326989 15.67841875 1.57275391 17.12109375 C1.92510052 27.41824377 2.06240077 37.69693926 2 48 C1.67 48 1.34 48 1 48 C1 45.03 1 42.06 1 39 C0.34 39 -0.32 39 -1 39 C-0.67 26.13 -0.34 13.26 0 0 Z " fill="#FAC980" transform="translate(1003,736)"/>
<path d="M0 0 C1.19626226 3.58878679 1.42785054 6.48529098 0 10 C-1.64142963 11.0409066 -3.30712215 12.04504326 -5 13 C-5 13.66 -5 14.32 -5 15 C-4.34 15.33 -3.68 15.66 -3 16 C-5.31 16.33 -7.62 16.66 -10 17 C-8.23576999 13.24868988 -6.06102752 9.76463789 -3.875 6.25 C-3.50246094 5.64800781 -3.12992188 5.04601562 -2.74609375 4.42578125 C-1.83225276 2.94957657 -0.91633402 1.47465846 0 0 Z " fill="#FBCB64" transform="translate(834,511)"/>
<path d="M0 0 C1.65322266 0.01740234 1.65322266 0.01740234 3.33984375 0.03515625 C4.99693359 0.04869141 4.99693359 0.04869141 6.6875 0.0625 C7.54214844 0.07410156 8.39679687 0.08570313 9.27734375 0.09765625 C6.44177572 2.93322428 2.97358507 3.87210654 -0.72265625 5.22265625 C-1.82867188 5.63837891 -1.82867188 5.63837891 -2.95703125 6.0625 C-8.45095058 8.09765625 -8.45095058 8.09765625 -10.72265625 8.09765625 C-10.39265625 7.10765625 -10.06265625 6.11765625 -9.72265625 5.09765625 C-8.40265625 5.09765625 -7.08265625 5.09765625 -5.72265625 5.09765625 C-5.41328125 4.45828125 -5.10390625 3.81890625 -4.78515625 3.16015625 C-3.21663215 0.11537418 -3.21663215 0.11537418 0 0 Z " fill="#FBC552" transform="translate(701.72265625,1152.90234375)"/>
<path d="M0 0 C0.33 0.99 0.66 1.98 1 3 C1.99 3 2.98 3 4 3 C3.6875 6.375 3.6875 6.375 3 10 C2.01 10.66 1.02 11.32 0 12 C-1.19232613 14.05003955 -1.19232613 14.05003955 -2 16 C-2.33 16 -2.66 16 -3 16 C-2.52013969 10.43109483 -1.70084819 5.32932432 0 0 Z " fill="#FAAF42" transform="translate(1242,952)"/>
<path d="M0 0 C2.9719385 1.12451727 5.33440687 2.22293791 8 4 C8 5.32 8 6.64 8 8 C2.63904723 6.41078475 -2.70843973 4.81027062 -8 3 C-5.10765685 2.17361624 -3.11257569 2 0 2 C0 1.34 0 0.68 0 0 Z " fill="#F9AE3F" transform="translate(1184,1145)"/>
<path d="M0 0 C1.70158418 5.73165198 0.70405629 10.77215784 -2 16 C-2.16750414 18.66709069 -2.16750414 18.66709069 -2 21 C-2.99 21.33 -3.98 21.66 -5 22 C-5.33 22.66 -5.66 23.32 -6 24 C-4.56933303 15.8301386 -2.35862583 7.94605012 0 0 Z " fill="#FABD67" transform="translate(1253,912)"/>
<path d="M0 0 C2.18975773 3.28463659 2.99806563 6.20696275 4 10 C3.34 10 2.68 10 2 10 C1.67 10.66 1.34 11.32 1 12 C-0.32 11.67 -1.64 11.34 -3 11 C-3 8.36 -3 5.72 -3 3 C-2.01 3 -1.02 3 0 3 C0 2.01 0 1.02 0 0 Z M-5 5 C-3 6 -3 6 -3 6 Z " fill="#FBC552" transform="translate(589,715)"/>
<path d="M0 0 C0.33 0 0.66 0 1 0 C1.1953125 6.0546875 1.1953125 6.0546875 1 8 C0.34 8.66 -0.32 9.32 -1 10 C-1.46396693 12.89223503 -1.46396693 12.89223503 -1.625 16.125 C-1.69976563 17.22070312 -1.77453125 18.31640625 -1.8515625 19.4453125 C-1.90054688 20.28835938 -1.94953125 21.13140625 -2 22 C-2.33 22 -2.66 22 -3 22 C-3.33 16.06 -3.66 10.12 -4 4 C-3.01 3.67 -2.02 3.34 -1 3 C-0.67 2.01 -0.34 1.02 0 0 Z " fill="#FDCB67" transform="translate(580,1040)"/>
<path d="M0 0 C0.99 0.33 1.98 0.66 3 1 C2.67 5.29 2.34 9.58 2 14 C1.67 14 1.34 14 1 14 C0.67 12.35 0.34 10.7 0 9 C-0.66 9 -1.32 9 -2 9 C-2.33 6.69 -2.66 4.38 -3 2 C-2.01 1.34 -1.02 0.68 0 0 Z " fill="#FAB551" transform="translate(1333,967)"/>
<path d="M0 0 C0.88935377 3.303314 1.46274105 6.62294375 2 10 C1.236875 10.598125 0.47375 11.19625 -0.3125 11.8125 C-2.35378343 13.47400977 -4.16900528 15.12604939 -6 17 C-4.33846988 11.14340094 -2.52958084 5.5409866 0 0 Z " fill="#FCCA64" transform="translate(925,323)"/>
<path d="M0 0 C1.76164133 6.64209802 0.77839229 12.06214388 -2.5625 18.0625 C-3.36001416 19.38415944 -4.16728697 20.70023021 -5 22 C-6.3494709 19.30105819 -5.66874571 18.27881269 -4.78515625 15.4296875 C-4.51123047 14.53378906 -4.23730469 13.63789062 -3.95507812 12.71484375 C-3.51325195 11.30912109 -3.51325195 11.30912109 -3.0625 9.875 C-2.77181641 8.93011719 -2.48113281 7.98523438 -2.18164062 7.01171875 C-1.46093521 4.67237987 -0.73347394 2.33536079 0 0 Z " fill="#FABC63" transform="translate(1269,857)"/>
<path d="M0 0 C1.39211215 4.17633644 -0.0464421 5.78960515 -1.9375 9.6875 C-2.50339844 10.86699219 -3.06929687 12.04648437 -3.65234375 13.26171875 C-4.09707031 14.16535156 -4.54179688 15.06898438 -5 16 C-5.66 15.67 -6.32 15.34 -7 15 C-7 14.34 -7 13.68 -7 13 C-6.34 13 -5.68 13 -5 13 C-4.32326553 9.59679066 -4.32326553 9.59679066 -4 6 C-4.66 5.34 -5.32 4.68 -6 4 C-4.02 2.68 -2.04 1.36 0 0 Z " fill="#F9B556" transform="translate(1457,501)"/>
<path d="M0 0 C0.99 0.66 1.98 1.32 3 2 C2.67 2.66 2.34 3.32 2 4 C2.99 4.33 3.98 4.66 5 5 C1.535 6.485 1.535 6.485 -2 8 C-2.99 6.02 -3.98 4.04 -5 2 C-2.6875 0.875 -2.6875 0.875 0 0 Z " fill="#FCC860" transform="translate(627,1184)"/>
<path d="M0 0 C0.99 0.33 1.98 0.66 3 1 C2.68889371 3.85432471 2.37615574 6.70845525 2.0625 9.5625 C1.97548828 10.36236328 1.88847656 11.16222656 1.79882812 11.98632812 C1.28238548 16.67256697 0.69478469 21.33680546 0 26 C-0.33 26 -0.66 26 -1 26 C-0.67 17.42 -0.34 8.84 0 0 Z " fill="#FBC270" transform="translate(1339,923)"/>
<path d="M0 0 C2.22825644 2.22825644 2.69239369 3.65761628 3.625 6.625 C3.88539063 7.44226563 4.14578125 8.25953125 4.4140625 9.1015625 C4.60742188 9.72804688 4.80078125 10.35453125 5 11 C3.68 10.67 2.36 10.34 1 10 C1 9.34 1 8.68 1 8 C0.01 8.33 -0.98 8.66 -2 9 C-2.33 8.34 -2.66 7.68 -3 7 C-2.67 6.01 -2.34 5.02 -2 4 C-1.34 4 -0.68 4 0 4 C0 2.68 0 1.36 0 0 Z " fill="#FAB553" transform="translate(988,348)"/>
<path d="M0 0 C2.56616632 3.84924948 2.55097676 6.4349304 3 11 C2.67 10.34 2.34 9.68 2 9 C1.01 9.33 0.02 9.66 -1 10 C-2.25664978 7.09399739 -3 5.20395416 -3 2 C-2.01 1.34 -1.02 0.68 0 0 Z " fill="#FCC659" transform="translate(661,953)"/>
<path d="M0 0 C0.66 0.33 1.32 0.66 2 1 C0.68 1.33 -0.64 1.66 -2 2 C-2.103125 2.598125 -2.20625 3.19625 -2.3125 3.8125 C-3.11209475 6.35666511 -3.81974318 7.4657452 -6 9 C-8.1875 8.6875 -8.1875 8.6875 -10 8 C-9.01 7.67 -8.02 7.34 -7 7 C-7 6.34 -7 5.68 -7 5 C-7.66 4.67 -8.32 4.34 -9 4 C-7.54618103 3.30300448 -6.08677047 2.61766134 -4.625 1.9375 C-3.40683594 1.36322266 -3.40683594 1.36322266 -2.1640625 0.77734375 C-1.09285156 0.39255859 -1.09285156 0.39255859 0 0 Z " fill="#FBB350" transform="translate(1401,532)"/>
<path d="M0 0 C2.01635978 3.02453967 3.03246502 5.63075348 4.1875 9.0625 C4.55230469 10.12597656 4.91710937 11.18945312 5.29296875 12.28515625 C6 15 6 15 5 17 C2 12.25 2 12.25 2 10 C1.34 10 0.68 10 0 10 C-0.33 8.68 -0.66 7.36 -1 6 C-0.34 6 0.32 6 1 6 C0.67 4.02 0.34 2.04 0 0 Z " fill="#FDCB65" transform="translate(594,730)"/>
<path d="M0 0 C-1.33333333 0.66666667 -2.66666667 1.33333333 -4 2 C-4.5671875 2.3609375 -5.134375 2.721875 -5.71875 3.09375 C-8.88609909 4.35201197 -11.37945723 3.96205428 -14.75 3.625 C-15.92046875 3.51414062 -17.0909375 3.40328125 -18.296875 3.2890625 C-19.18890625 3.19367188 -20.0809375 3.09828125 -21 3 C-21 2.67 -21 2.34 -21 2 C-18.43795456 1.66280953 -15.87545682 1.33012847 -13.3125 1 C-12.59126953 0.90460938 -11.87003906 0.80921875 -11.12695312 0.7109375 C-7.39007129 0.23316265 -3.77708469 -0.11919794 0 0 Z " fill="#FCD174" transform="translate(712,1042)"/>
<path d="M0 0 C2.31 0.33 4.62 0.66 7 1 C4.19195732 3.96404505 1.81684226 6.44499019 -2 8 C-2.33 7.01 -2.66 6.02 -3 5 C-2.34 4.67 -1.68 4.34 -1 4 C-0.34786708 1.97536745 -0.34786708 1.97536745 0 0 Z " fill="#FCC75A" transform="translate(572,601)"/>
<path d="M0 0 C0.66 0 1.32 0 2 0 C2.33 1.98 2.66 3.96 3 6 C-0.96 6 -4.92 6 -9 6 C-9 5.67 -9 5.34 -9 5 C-7.88625 4.731875 -6.7725 4.46375 -5.625 4.1875 C-1.78159049 3.34190981 -1.78159049 3.34190981 0 0 Z " fill="#F4AD44" transform="translate(1014,1188)"/>
<path d="M0 0 C2.97 0.99 5.94 1.98 9 3 C6.23776722 5.76223278 3.79293383 5.57856291 0 6 C0 4 0 2 0 0 Z " fill="#FCC658" transform="translate(531,545)"/>
<path d="M0 0 C1.24096402 3.55519423 0.75495011 5.91370745 -0.25 9.5 C-0.50265625 10.4384375 -0.7553125 11.376875 -1.015625 12.34375 C-2.00449787 15.01213712 -3.17967026 16.83196683 -5 19 C-4.39297368 12.3227105 -2.22368606 6.29872004 0 0 Z " fill="#FBC16E" transform="translate(1314,713)"/>
<path d="M0 0 C2.45823172 3.68734758 3.01242616 6.69699971 4 11 C3.01 10.67 2.02 10.34 1 10 C0.67 9.34 0.34 8.68 0 8 C-0.66 8.66 -1.32 9.32 -2 10 C-1.54177532 6.53058454 -1.10868317 3.32604951 0 0 Z " fill="#FEC863" transform="translate(572,664)"/>
<path d="M0 0 C4.42857143 5.14285714 4.42857143 5.14285714 5 9 C3.02 9 1.04 9 -1 9 C-1.125 2.25 -1.125 2.25 0 0 Z " fill="#F9AE41" transform="translate(953,263)"/>
<path d="M0 0 C1.21065165 3.63195496 0.62784815 5.06531629 -0.4375 8.6875 C-0.86869141 10.17830078 -0.86869141 10.17830078 -1.30859375 11.69921875 C-1.53675781 12.45847656 -1.76492188 13.21773437 -2 14 C-2.33 14 -2.66 14 -3 14 C-4.47484493 5.29841489 -4.47484493 5.29841489 -2 1 C-1.34 0.67 -0.68 0.34 0 0 Z " fill="#FBBC61" transform="translate(1382,720)"/>
<path d="M0 0 C2.97 0.495 2.97 0.495 6 1 C5.01 1.495 5.01 1.495 4 2 C4 2.66 4 3.32 4 4 C-1.61 3.34 -7.22 2.68 -13 2 C-13 1.67 -13 1.34 -13 1 C-8.71 1 -4.42 1 0 1 C0 0.67 0 0.34 0 0 Z " fill="#FABD65" transform="translate(1038,516)"/>
<path d="M0 0 C3.63 0.33 7.26 0.66 11 1 C11 1.99 11 2.98 11 4 C11.99 4 12.98 4 14 4 C14 4.66 14 5.32 14 6 C9.27934033 4.45730076 4.58335908 2.92205381 0 1 C0 0.67 0 0.34 0 0 Z " fill="#FABC63" transform="translate(1205,1158)"/>
<path d="M0 0 C1.98 0.495 1.98 0.495 4 1 C3.01 4.3 2.02 7.6 1 11 C-1.2297787 6.54044259 -1.2685228 4.59839517 0 0 Z " fill="#FAB858" transform="translate(1420,586)"/>
<path d="M0 0 C2 3 2 3 1.625 5.6875 C1.41875 6.450625 1.2125 7.21375 1 8 C0.01 8 -0.98 8 -2 8 C-2 8.66 -2 9.32 -2 10 C-2.66 10 -3.32 10 -4 10 C-2.8905928 6.51329166 -1.73662334 3.22515763 0 0 Z " fill="#FCC75A" transform="translate(892,400)"/>
<path d="M0 0 C-1.65 0.33 -3.3 0.66 -5 1 C-4.67 2.32 -4.34 3.64 -4 5 C-8.75 4.125 -8.75 4.125 -11 3 C-11 2.34 -11 1.68 -11 1 C-3.375 -1.125 -3.375 -1.125 0 0 Z " fill="#FAC576" transform="translate(1288,574)"/>
<path d="M0 0 C3 2 3 2 3.9375 3.875 C4 6 4 6 2.0625 8.25 C1.381875 8.8275 0.70125 9.405 0 10 C-0.66 7.69 -1.32 5.38 -2 3 C-1.34 2.67 -0.68 2.34 0 2 C0 1.34 0 0.68 0 0 Z " fill="#FCC555" transform="translate(475,566)"/>
<path d="M0 0 C-2.475 1.485 -2.475 1.485 -5 3 C-4.67 3.66 -4.34 4.32 -4 5 C-7.63 4.67 -11.26 4.34 -15 4 C-12.19836511 2.13224341 -10.11958197 1.27321694 -6.9375 0.3125 C-6.05964844 0.04050781 -5.18179687 -0.23148438 -4.27734375 -0.51171875 C-2 -1 -2 -1 0 0 Z " fill="#FABB63" transform="translate(1326,563)"/>
<path d="M0 0 C-0.33 0.99 -0.66 1.98 -1 3 C-6.28 2.67 -11.56 2.34 -17 2 C-17 1.67 -17 1.34 -17 1 C-11.30494264 0.3583034 -5.73266804 -0.12462322 0 0 Z " fill="#FBC475" transform="translate(1093,1124)"/>
<path d="M0 0 C2.55803184 3.83704776 4.34505724 7.75712791 3.625 12.4375 C3.41875 12.953125 3.2125 13.46875 3 14 C2.67 13.34 2.34 12.68 2 12 C1.34 12 0.68 12 0 12 C-0.33 12.66 -0.66 13.32 -1 14 C-0.9278125 13.32453125 -0.855625 12.6490625 -0.78125 11.953125 C-0.6884375 11.06109375 -0.595625 10.1690625 -0.5 9.25 C-0.4071875 8.36828125 -0.314375 7.4865625 -0.21875 6.578125 C0.05636313 3.76695165 0.05636313 3.76695165 0 0 Z " fill="#FECD6C" transform="translate(634,858)"/>
<path d="M0 0 C1.35158203 0.15275391 1.35158203 0.15275391 2.73046875 0.30859375 C3.41753906 0.39238281 4.10460937 0.47617188 4.8125 0.5625 C4.8125 0.8925 4.8125 1.2225 4.8125 1.5625 C-0.4675 2.2225 -5.7475 2.8825 -11.1875 3.5625 C-7.25606337 -0.36893663 -5.28136581 -0.6173025 0 0 Z " fill="#FDD073" transform="translate(783.1875,1129.4375)"/>
<path d="M0 0 C0.33 0 0.66 0 1 0 C1.33 5.61 1.66 11.22 2 17 C1.67 15.68 1.34 14.36 1 13 C0.34 13 -0.32 13 -1 13 C-1.33 13.99 -1.66 14.98 -2 16 C-1.34 10.72 -0.68 5.44 0 0 Z " fill="#FAC576" transform="translate(1014,943)"/>
<path d="M0 0 C2.64465038 3.1254959 3.84414715 6.08788267 5 10 C4.01 10.33 3.02 10.66 2 11 C1.67 9.35 1.34 7.7 1 6 C0.67 6 0.34 6 0 6 C0 4.02 0 2.04 0 0 Z M0 11 C0.66 11 1.32 11 2 11 C1.67 11.66 1.34 12.32 1 13 C0.67 12.34 0.34 11.68 0 11 Z " fill="#F9B653" transform="translate(1044,467)"/>
<path d="M0 0 C1.85486952 2.78230428 2.72462112 4.84363607 3.6875 8 C3.95949219 8.86625 4.23148438 9.7325 4.51171875 10.625 C5 13 5 13 4 16 C0.67424388 10.4174808 -0.46450943 6.50313209 0 0 Z " fill="#FCD37E" transform="translate(645,896)"/>
<path d="M0 0 C0.99 0.33 1.98 0.66 3 1 C3.79953138 4.28696233 4.09658936 5.71023192 3 9 C3.66 9.33 4.32 9.66 5 10 C4.01 11.485 4.01 11.485 3 13 C2.49487756 11.39743892 1.99608373 9.79288208 1.5 8.1875 C1.2215625 7.29417969 0.943125 6.40085937 0.65625 5.48046875 C0 3 0 3 0 0 Z " fill="#FDCD6B" transform="translate(512,688)"/>
<path d="M0 0 C1.95582488 2.93373731 3.56224304 5.78216298 5 9 C4.67 9.66 4.34 10.32 4 11 C3.54625 10.34 3.0925 9.68 2.625 9 C2.08875 8.34 1.5525 7.68 1 7 C0.34 7 -0.32 7 -1 7 C-1.04254356 5.00045254 -1.04080783 2.99958364 -1 1 C-0.67 0.67 -0.34 0.34 0 0 Z " fill="#FABA5E" transform="translate(1011,400)"/>
<path d="M0 0 C-0.33 0.66 -0.66 1.32 -1 2 C0.32 2.33 1.64 2.66 3 3 C0.09905209 4.45047396 -1.55972596 3.45356803 -4.625 2.5625 C-5.62789062 2.27503906 -6.63078125 1.98757813 -7.6640625 1.69140625 C-8.43492188 1.46324219 -9.20578125 1.23507812 -10 1 C-10 0.67 -10 0.34 -10 0 C-3.375 -1.125 -3.375 -1.125 0 0 Z " fill="#FBBE6A" transform="translate(1144,1133)"/>
<path d="M0 0 C0.33 0 0.66 0 1 0 C1.02698189 1.62490954 1.04638757 3.24994633 1.0625 4.875 C1.07410156 5.77992187 1.08570313 6.68484375 1.09765625 7.6171875 C1 10 1 10 0 12 C-1.32 11.67 -2.64 11.34 -4 11 C-3.34 11 -2.68 11 -2 11 C-1.34 7.37 -0.68 3.74 0 0 Z " fill="#FCBF69" transform="translate(1220,1034)"/>
<path d="M0 0 C0.185625 0.9590625 0.185625 0.9590625 0.375 1.9375 C0.684375 2.9584375 0.684375 2.9584375 1 4 C1.66 4.33 2.32 4.66 3 5 C2.01 5.66 1.02 6.32 0 7 C0.66 7.33 1.32 7.66 2 8 C1.67 8.66 1.34 9.32 1 10 C0.34 10 -0.32 10 -1 10 C-1.33 10.66 -1.66 11.32 -2 12 C-1 3.42857143 -1 3.42857143 0 0 Z " fill="#FBB85C" transform="translate(1235,977)"/>
<path d="M0 0 C0.66 1.32 1.32 2.64 2 4 C1.34 4 0.68 4 0 4 C-0.4021875 5.7015625 -0.4021875 5.7015625 -0.8125 7.4375 C-1.204375 8.613125 -1.59625 9.78875 -2 11 C-2.99 11.33 -3.98 11.66 -5 12 C-4.54738642 10.56068883 -4.08767021 9.12361001 -3.625 7.6875 C-3.24214844 6.48673828 -3.24214844 6.48673828 -2.8515625 5.26171875 C-2 3 -2 3 0 0 Z " fill="#FCCF72" transform="translate(883,419)"/>
<path d="M0 0 C-0.33 0.99 -0.66 1.98 -1 3 C-0.01 3.99 0.98 4.98 2 6 C1.67 6.99 1.34 7.98 1 9 C-0.98 6.36 -2.96 3.72 -5 1 C-3 0 -3 0 0 0 Z " fill="#FCCD6B" transform="translate(597,1146)"/>
<path d="M0 0 C1.32 1.32 2.64 2.64 4 4 C3.67 4.33 3.34 4.66 3 5 C2.76807135 6.51469448 2.58784762 8.03754562 2.4375 9.5625 C2.35371094 10.38878906 2.26992188 11.21507812 2.18359375 12.06640625 C2.12300781 12.70449219 2.06242188 13.34257813 2 14 C1.67 14 1.34 14 1 14 C0.67 9.38 0.34 4.76 0 0 Z " fill="#FDCE73" transform="translate(568,968)"/>
<path d="M0 0 C2.6855594 2.6855594 3.06049974 5.37621328 4 9 C2.68 9 1.36 9 0 9 C-1.125 2.25 -1.125 2.25 0 0 Z " fill="#F9B753" transform="translate(1019,417)"/>
<path d="M0 0 C1.15866723 4.63466892 0.70010994 7.33260039 0 12 C-0.33 11.34 -0.66 10.68 -1 10 C-1.66 10 -2.32 10 -3 10 C-2.01 6.7 -1.02 3.4 0 0 Z " fill="#FCCB67" transform="translate(917,342)"/>
<path d="M0 0 C0.66 0 1.32 0 2 0 C2.33 0.99 2.66 1.98 3 3 C3.66 3.66 4.32 4.32 5 5 C3.02 5.66 1.04 6.32 -1 7 C-1.04254356 5.00045254 -1.04080783 2.99958364 -1 1 C-0.67 0.67 -0.34 0.34 0 0 Z " fill="#FCC75A" transform="translate(677,1161)"/>
<path d="M0 0 C2.1991413 4.39828259 2.51855059 7.18550592 3 12 C2.67 11.01 2.34 10.02 2 9 C1.01 9.33 0.02 9.66 -1 10 C-0.67 6.7 -0.34 3.4 0 0 Z " fill="#FDCD6E" transform="translate(674,1001)"/>
<path d="M0 0 C1.76462683 3.08809695 2 4.23312136 2 8 C0 8 0 8 -1.6875 6.75 C-3 5 -3 5 -2.6875 2.8125 C-2.460625 2.214375 -2.23375 1.61625 -2 1 C-2 1.66 -2 2.32 -2 3 C-1.34 3 -0.68 3 0 3 C0 2.01 0 1.02 0 0 Z " fill="#FCC75C" transform="translate(670,986)"/>
<path d="M0 0 C0.33 0 0.66 0 1 0 C1.28571429 7.42857143 1.28571429 7.42857143 -1 11 C-1.66 11 -2.32 11 -3 11 C-2.01 7.37 -1.02 3.74 0 0 Z " fill="#FABB5E" transform="translate(1297,766)"/>
<path d="M0 0 C2 3 2 3 1.875 6.0625 C1.58625 7.031875 1.2975 8.00125 1 9 C-0.98 9.99 -0.98 9.99 -3 11 C-2.01 7.37 -1.02 3.74 0 0 Z " fill="#FBB95C" transform="translate(1342,632)"/>
<path d="M0 0 C4.12751449 0.60698743 7.3321148 2.03810791 11 4 C9.02 4.99 9.02 4.99 7 6 C6.67 5.01 6.34 4.02 6 3 C4.35 3 2.7 3 1 3 C0.67 2.01 0.34 1.02 0 0 Z " fill="#FCCE6E" transform="translate(480,522)"/>
<path d="M0 0 C-1.98 2.97 -1.98 2.97 -4 6 C-4.33 5.01 -4.66 4.02 -5 3 C-5.66 3 -6.32 3 -7 3 C-7 2.34 -7 1.68 -7 1 C-4.53721199 -0.231394 -2.7204945 -0.07159196 0 0 Z " fill="#F9B754" transform="translate(1305,1155)"/>
<path d="M0 0 C2.97 0 5.94 0 9 0 C6.3144406 2.6855594 3.62378672 3.06049974 0 4 C0 2.68 0 1.36 0 0 Z " fill="#FCCD6D" transform="translate(702,1153)"/>
<path d="M0 0 C-2.91765 1.9451 -4.62537285 2.45276317 -8 3 C-8.66 2.01 -9.32 1.02 -10 0 C-5.91847062 -2.09907226 -4.08152938 -2.09907226 0 0 Z " fill="#FDCA64" transform="translate(750,1139)"/>
<path d="M0 0 C2.29633824 3.44450737 2.54016485 5.93812283 3 10 C1.68 9.34 0.36 8.68 -1 8 C-0.67 5.36 -0.34 2.72 0 0 Z " fill="#FDCD6F" transform="translate(602,754)"/>
<path d="M0 0 C2.475 0.99 2.475 0.99 5 2 C3.71034824 3.37562854 2.37310707 4.70766393 1 6 C0.34 6 -0.32 6 -1 6 C-0.67 4.02 -0.34 2.04 0 0 Z " fill="#FCC95F" transform="translate(580,596)"/>
<path d="M0 0 C0.33 0 0.66 0 1 0 C1.33 2.64 1.66 5.28 2 8 C1.01 8 0.02 8 -1 8 C-1.33 8.99 -1.66 9.98 -2 11 C-1.125 3.375 -1.125 3.375 0 0 Z " fill="#FBBE67" transform="translate(1227,1008)"/>
<path d="M0 0 C0.33 0 0.66 0 1 0 C0.67 3.3 0.34 6.6 0 10 C-0.33 9.01 -0.66 8.02 -1 7 C-1.66 7 -2.32 7 -3 7 C-2.38722388 4.03824877 -1.74627478 2.61941217 0 0 Z " fill="#FABD64" transform="translate(1343,910)"/>
<path d="M0 0 C2 3 2 3 2 6 C1.01 6.495 1.01 6.495 0 7 C-1.13350534 9.01669827 -1.13350534 9.01669827 -2 11 C-3 9 -3 9 -2.44140625 6.8359375 C-2.15136719 6.02382813 -1.86132812 5.21171875 -1.5625 4.375 C-1.27503906 3.55773437 -0.98757813 2.74046875 -0.69140625 1.8984375 C-0.46324219 1.27195312 -0.23507812 0.64546875 0 0 Z " fill="#FBC170" transform="translate(1275,837)"/>
<path d="M0 0 C0.66 1.32 1.32 2.64 2 4 C1 7 1 7 -3 11 C-2.01 7.37 -1.02 3.74 0 0 Z " fill="#F9BF6B" transform="translate(1331,663)"/>
<path d="M0 0 C1.32 0.66 2.64 1.32 4 2 C2.35 3.65 0.7 5.3 -1 7 C-1.66 6.67 -2.32 6.34 -3 6 C-2.01 4.02 -1.02 2.04 0 0 Z " fill="#FCD179" transform="translate(562,611)"/>
<path d="M0 0 C3.3 0.99 6.6 1.98 10 3 C8.02 3.99 8.02 3.99 6 5 C5.34 4.67 4.68 4.34 4 4 C4 3.34 4 2.68 4 2 C2.68 2.33 1.36 2.66 0 3 C0 2.01 0 1.02 0 0 Z " fill="#FCD070" transform="translate(546,551)"/>
<path d="M0 0 C0.99 0.33 1.98 0.66 3 1 C1.515 4.96 1.515 4.96 0 9 C-0.33 9 -0.66 9 -1 9 C-1.625 6.1875 -1.625 6.1875 -2 3 C-1.34 2.01 -0.68 1.02 0 0 Z " fill="#FABC60" transform="translate(1447,521)"/>
<path d="M0 0 C3.07536854 0.65900754 5.07735566 1.53867783 8 3 C4.37 3.33 0.74 3.66 -3 4 C-2.01 3.67 -1.02 3.34 0 3 C0 2.01 0 1.02 0 0 Z " fill="#FDCE71" transform="translate(877,514)"/>
<path d="M0 0 C0.33 0.99 0.66 1.98 1 3 C-0.4375 5.1875 -0.4375 5.1875 -2 7 C-2 6.34 -2 5.68 -2 5 C-3.32 4.67 -4.64 4.34 -6 4 C-4.02 2.68 -2.04 1.36 0 0 Z " fill="#F8C577" transform="translate(1457,501)"/>
<path d="M0 0 C0.33 0.99 0.66 1.98 1 3 C1.66 2.67 2.32 2.34 3 2 C3 2.99 3 3.98 3 5 C2.01 5 1.02 5 0 5 C-0.33 5.66 -0.66 6.32 -1 7 C-1.66 7 -2.32 7 -3 7 C-1.125 1.125 -1.125 1.125 0 0 Z " fill="#FEC963" transform="translate(852,480)"/>
<path d="M0 0 C0.33 0 0.66 0 1 0 C1 2.64 1 5.28 1 8 C-0.98 8.99 -0.98 8.99 -3 10 C-2.01 6.7 -1.02 3.4 0 0 Z " fill="#FCCE69" transform="translate(931,308)"/>
<path d="M0 0 C2.64 0 5.28 0 8 0 C8 0.66 8 1.32 8 2 C8.66 2 9.32 2 10 2 C10 2.66 10 3.32 10 4 C6.7 3.01 3.4 2.02 0 1 C0 0.67 0 0.34 0 0 Z " fill="#F9C16D" transform="translate(1176,1147)"/>
<path d="M0 0 C-1.17578125 1.51953125 -1.17578125 1.51953125 -3 3 C-5.48046875 3.07421875 -5.48046875 3.07421875 -8.1875 2.6875 C-9.53908203 2.50767578 -9.53908203 2.50767578 -10.91796875 2.32421875 C-11.94857422 2.16373047 -11.94857422 2.16373047 -13 2 C-13 1.67 -13 1.34 -13 1 C-8.62426048 0.40667939 -4.42471556 -0.13827236 0 0 Z " fill="#FDD27A" transform="translate(776,1034)"/>
<path d="M0 0 C0.33 0.99 0.66 1.98 1 3 C1.99 3 2.98 3 4 3 C3.67 4.32 3.34 5.64 3 7 C2.01 7 1.02 7 0 7 C-0.93423645 3.98968256 -1.04449911 3.13349732 0 0 Z " fill="#FBB452" transform="translate(1242,952)"/>
<path d="M0 0 C0.66 0 1.32 0 2 0 C2 1.65 2 3.3 2 5 C1.01 5.33 0.02 5.66 -1 6 C-1.33 6.66 -1.66 7.32 -2 8 C-1.125 2.25 -1.125 2.25 0 0 Z " fill="#FCB755" transform="translate(1249,928)"/>
<path d="M0 0 C0.66 0.66 1.32 1.32 2 2 C1.625 4.625 1.625 4.625 1 7 C0.34 7 -0.32 7 -1 7 C-1.33 7.99 -1.66 8.98 -2 10 C-1.54177532 6.53058454 -1.10868317 3.32604951 0 0 Z " fill="#FBBD63" transform="translate(1260,888)"/>
<path d="M0 0 C0.33 0 0.66 0 1 0 C1.25 2.75 1.25 2.75 1 6 C-1 8.375 -1 8.375 -3 10 C-2.01 6.7 -1.02 3.4 0 0 Z " fill="#FCBF6E" transform="translate(1320,696)"/>
<path d="M0 0 C-2.55991624 2.01136276 -5.04590299 3.62845496 -8 5 C-8.33 3.68 -8.66 2.36 -9 1 C-5.92677456 0.08941469 -3.19902639 -0.08886184 0 0 Z " fill="#FCCB69" transform="translate(604,587)"/>
<path d="M0 0 C0.99 0 1.98 0 3 0 C2.34 2.97 1.68 5.94 1 9 C-1 5 -1 5 -1 3 C-0.34 3 0.32 3 1 3 C0.67 2.01 0.34 1.02 0 0 Z " fill="#FABB5C" transform="translate(1426,572)"/>
<path d="M0 0 C2.475 0.99 2.475 0.99 5 2 C4.67 3.98 4.34 5.96 4 8 C1.84622436 5.37801226 0.59927826 3.35595828 0 0 Z " fill="#FCCD6A" transform="translate(449,510)"/>
<path d="M0 0 C0.99 0.33 1.98 0.66 3 1 C1.69593116 3.01920337 0.36176581 5.01924973 -1 7 C-1.33 7 -1.66 7 -2 7 C-2.125 4.625 -2.125 4.625 -2 2 C-1.34 1.34 -0.68 0.68 0 0 Z " fill="#FAB759" transform="translate(1295,1163)"/>
<path d="M0 0 C1.65 0 3.3 0 5 0 C5.33 0.66 5.66 1.32 6 2 C3.69 2.66 1.38 3.32 -1 4 C-0.67 2.68 -0.34 1.36 0 0 Z " fill="#FBC961" transform="translate(721,1146)"/>
<path d="M0 0 C1.32 0.66 2.64 1.32 4 2 C3.34 2 2.68 2 2 2 C2.33 2.99 2.66 3.98 3 5 C0.69 4.34 -1.62 3.68 -4 3 C-2.68 2.67 -1.36 2.34 0 2 C0 1.34 0 0.68 0 0 Z " fill="#FAB755" transform="translate(1164,1139)"/>
<path d="M0 0 C4.29 0.33 8.58 0.66 13 1 C13 1.33 13 1.66 13 2 C11.58696762 2.2506019 10.16920526 2.47461921 8.75 2.6875 C7.96109375 2.81511719 7.1721875 2.94273438 6.359375 3.07421875 C4 3 4 3 0 0 Z " fill="#FBC67A" transform="translate(1120,1033)"/>
<path d="M0 0 C1 2 1 2 0.0625 5.125 C-0.288125 6.07375 -0.63875 7.0225 -1 8 C-3 5 -3 5 -4 2 C-2.68 1.34 -1.36 0.68 0 0 Z " fill="#FABD65" transform="translate(1413,616)"/>
<path d="M0 0 C2.15377564 2.62198774 3.40072174 4.64404172 4 8 C2.35 7.01 0.7 6.02 -1 5 C-0.67 3.35 -0.34 1.7 0 0 Z " fill="#F8BA58" transform="translate(1030,440)"/>
<path d="M0 0 C0.82810826 3.31243305 1.09278428 5.65976579 1 9 C-0.32 9.33 -1.64 9.66 -3 10 C-2.01 6.7 -1.02 3.4 0 0 Z " fill="#FCD177" transform="translate(946,269)"/>
</svg>
