<svg version="1.2" xmlns="http://www.w3.org/2000/svg" viewBox="0 0 239 155" width="239" height="155">
	<style>
		.s0 { fill: #000000 } 
	</style>
	<g id="Layer">
		<path id="Layer" class="s0" d="m37.1 45.4c-14.6 17.7-26.4 32.6-26.3 33 0 0.4 12.1 15.3 26.8 33.2l26.7 32.4 6.3-10.5 6.4-10.6-18-22c-9.9-12.1-18-22.4-18-22.7 0-0.4 6.8-9 15.1-19.2 8.3-10.2 16.4-20.1 17.9-22.1l2.9-3.5-5.9-10c-3.3-5.4-6.3-10-6.7-10.1-0.5-0.1-12.7 14.3-27.2 32.1z"/>
		<path id="Layer" class="s0" d="m168.8 22.8c-3.2 5.4-5.8 10.2-5.8 10.6 0 0.3 8.1 10.6 18 22.7l18 22.1-8.3 10.2c-22.3 27.1-27.7 33.9-27.7 34.7 0 0.4 2.7 5.3 6.1 10.8l6 10.1 26.1-31.8c14.3-17.4 26.5-32.2 27-32.9 0.7-0.9-6.9-10.7-25.8-33.8-14.7-17.9-27-32.5-27.3-32.5-0.3 0-3.2 4.4-6.3 9.8z"/>
		<path id="Layer" class="s0" d="m135.5 15.2c-1.5 4.5-36.5 124.9-36.5 125.8 0 0.6 4.2 1 11.5 1h11.4l2.5-8.3c6.7-22.2 34.6-118 34.6-118.8 0-1.5-23-1.1-23.5 0.3z"/>
	</g>
</svg>